<?xml version="1.0" encoding="UTF-8" standalone="no"?>
<svg
   xmlns:dc="http://purl.org/dc/elements/1.1/"
   xmlns:cc="http://creativecommons.org/ns#"
   xmlns:rdf="http://www.w3.org/1999/02/22-rdf-syntax-ns#"
   xmlns:svg="http://www.w3.org/2000/svg"
   xmlns="http://www.w3.org/2000/svg"
   viewBox="0 0 489.33334 290.66666"
   height="290.66666"
   width="489.33334"
   xml:space="preserve"
   id="svg2"
   version="1.1"><metadata
     id="metadata8"><rdf:RDF><cc:Work
         rdf:about=""><dc:format>image/svg+xml</dc:format><dc:type
           rdf:resource="http://purl.org/dc/dcmitype/StillImage" /></cc:Work></rdf:RDF></metadata><defs
     id="defs6"><clipPath
       id="clipPath30"
       clipPathUnits="userSpaceOnUse"><path
         id="path28"
         d="M 0,0 H 3668.28 V 2179.46 H 0 Z" /></clipPath></defs><g
     transform="matrix(1.3333333,0,0,-1.3333333,0,290.66667)"
     id="g10"><g
       transform="scale(0.1)"
       id="g12"><path
         id="path14"
         style="fill:#ffffff;fill-opacity:1;fill-rule:nonzero;stroke:none"
         d="m 366.66,852.512 h 69.051 V 678.551 H 686.68 V 609.5 H 435.711 V 180.59 c 0,-28.328 10.168,-52.668 30.539,-73.031 20.359,-20.3676 45.148,-30.5395 74.359,-30.5395 28.321,0 52.661,10.1719 73.039,30.5395 20.352,20.363 30.543,44.703 30.543,73.031 h 69.047 c 0,-23.899 -4.437,-46.469 -13.277,-67.719 C 691.102,91.6289 678.711,73.2383 662.781,57.7617 646.84,42.2617 628.461,29.8789 607.672,20.5898 586.859,11.2891 564.52,6.64062 540.609,6.64062 c -23.898,0 -46.468,4.64848 -67.718,13.94918 -21.25,9.2891 -39.629,21.6719 -55.102,37.1719 -15.508,15.4766 -27.891,33.8672 -37.187,55.1093 -9.293,21.25 -13.942,43.82 -13.942,67.719 v 671.922" /><path
         id="path16"
         style="fill:#ffffff;fill-opacity:1;fill-rule:nonzero;stroke:none"
         d="m 1374.51,381.102 c -4.44,34.527 -14.61,66.398 -30.54,95.617 -15.93,29.211 -36.08,54.871 -60.42,77.011 -24.36,22.122 -52.24,39.379 -83.66,51.79 -31.43,12.39 -64.86,18.589 -100.25,18.589 -35.42,0 -69.05,-6.199 -100.921,-18.589 C 966.852,593.109 938.73,575.852 914.398,553.73 890.039,531.59 869.91,505.93 853.98,476.719 838.051,447.5 827.859,415.629 823.441,381.102 Z M 1099.64,0 C 1051.83,0 1006.68,9.08984 964.191,27.2305 921.699,45.3594 884.73,70.1602 853.309,101.578 821.879,133 797.09,169.75 778.949,211.801 c -18.148,42.039 -27.219,86.98 -27.219,134.777 0,47.801 9.071,92.953 27.219,135.442 18.141,42.5 42.93,79.449 74.36,110.878 31.421,31.422 68.39,56.211 110.882,74.364 42.489,18.136 87.639,27.226 135.449,27.226 47.8,0 92.72,-9.09 134.78,-27.226 42.03,-18.153 78.78,-42.942 110.21,-74.364 31.41,-31.429 56.21,-68.378 74.36,-110.878 18.14,-42.489 27.22,-87.641 27.22,-135.442 0,-6.199 0,-11.949 0,-17.258 0,-5.32 -0.45,-11.082 -1.32,-17.261 H 823.441 c 4.418,-34.528 14.61,-66.399 30.539,-95.618 15.93,-29.203 36.059,-54.89 60.418,-77.011 24.332,-22.141 52.454,-39.399 84.321,-51.7816 31.871,-12.4179 65.501,-18.5976 100.921,-18.5976 25.66,0 50,4.8594 73.03,14.6094 23.01,9.7304 43.36,23.4488 61.08,41.1598 l 49.13,-49.1286 C 1259.86,52.6719 1232.63,34.3008 1201.22,20.5898 1169.79,6.87109 1135.93,0 1099.64,0" /><path
         id="path18"
         style="fill:#ffffff;fill-opacity:1;fill-rule:nonzero;stroke:none"
         d="m 1616.18,17.2617 h -69.04 V 349.238 c 0,47.801 9.06,92.953 27.22,135.442 18.13,42.5 42.92,79.449 74.36,110.879 31.41,31.41 68.16,56.211 110.21,74.363 42.04,18.137 86.98,27.226 134.78,27.226 V 626.77 c -38.07,0 -73.92,-7.309 -107.55,-21.918 -33.66,-14.614 -63.08,-34.313 -88.31,-59.09 -25.23,-24.793 -45.15,-54.231 -59.76,-88.301 -14.6,-34.09 -21.91,-70.18 -21.91,-108.223 V 17.2617" /><path
         id="path20"
         style="fill:#ffffff;fill-opacity:1;fill-rule:nonzero;stroke:none"
         d="m 2038.44,17.2617 h -69.05 V 349.238 c 0,47.801 9.07,92.953 27.22,135.442 18.14,42.5 42.93,79.449 74.37,110.879 31.41,31.41 68.15,56.211 110.21,74.363 42.04,18.137 86.98,27.226 134.78,27.226 V 626.77 c -38.08,0 -73.93,-7.309 -107.56,-21.918 -33.65,-14.614 -63.07,-34.313 -88.3,-59.09 -25.23,-24.793 -45.16,-54.231 -59.76,-88.301 -14.6,-34.09 -21.91,-70.18 -21.91,-108.223 V 17.2617" /><path
         id="path22"
         style="fill:#ffffff;fill-opacity:1;fill-rule:nonzero;stroke:none"
         d="m 2410.24,681.211 h 69.05 V 17.2617 h -69.05 z m 0,331.969 h 69.05 V 900.309 h -69.05" /><g
         id="g24"><g
           clip-path="url(#clipPath30)"
           id="g26"><path
             id="path32"
             style="fill:#ffffff;fill-opacity:1;fill-rule:nonzero;stroke:none"
             d="m 2953.34,628.09 c -38.06,0 -73.92,-7.301 -107.56,-21.91 -33.65,-14.61 -63.07,-34.321 -88.3,-59.09 -25.23,-24.801 -45.14,-54.231 -59.75,-88.301 -14.61,-34.09 -21.92,-70.18 -21.92,-108.219 0,-38.082 7.31,-73.929 21.92,-107.558 14.61,-33.66 34.52,-63.082 59.75,-88.313 25.23,-25.23 54.65,-45.148 88.3,-59.7498 33.64,-14.6094 69.5,-21.9101 107.56,-21.9101 38.06,0 74.13,7.3007 108.23,21.9101 34.07,14.6018 63.51,34.5198 88.31,59.7498 24.76,25.231 44.48,54.653 59.09,88.313 14.6,33.629 21.9,69.476 21.9,107.558 0,38.039 -7.3,74.129 -21.9,108.219 -14.61,34.07 -34.33,63.5 -59.09,88.301 -24.8,24.769 -54.24,44.48 -88.31,59.09 -34.1,14.609 -70.17,21.91 -108.23,21.91 z m 0,70.39 c 47.81,0 92.96,-9.101 135.45,-27.23 42.49,-18.16 79.45,-42.949 110.88,-74.371 31.41,-31.418 56.2,-68.367 74.36,-110.867 18.13,-42.5 27.22,-87.641 27.22,-135.442 V 18.5898 h -70.38 V 142.09 C 3199.88,99.5898 3160.27,65.9414 3112.02,41.1719 3063.76,16.3984 3010.88,3.98047 2953.34,3.98047 c -47.8,0 -92.74,9.09763 -134.77,27.23043 -42.06,18.1289 -78.81,42.9297 -110.22,74.3591 -31.43,31.41 -56.23,68.16 -74.36,110.211 -18.16,42.039 -27.22,86.981 -27.22,134.789 0,47.801 9.06,92.942 27.22,135.442 18.13,42.5 42.93,79.449 74.36,110.867 31.41,31.422 68.16,56.211 110.22,74.371 42.03,18.129 86.97,27.23 134.77,27.23" /><path
             id="path34"
             style="fill:#8bd9ea;fill-opacity:1;fill-rule:nonzero;stroke:none"
             d="M 3668.28,1329.33 C 3265.63,1369.84 2715.84,1861.8 1943.97,2132.36 893.211,2500.67 -518.102,570.602 192.102,1127.15 c 1426.918,1118.24 1440.328,328.89 2161.578,143.4 370.68,-95.32 851.97,-43.84 1314.6,58.78" /></g></g></g></g></svg>